<svg xmlns="http://www.w3.org/2000/svg" xmlns:xlink="http://www.w3.org/1999/xlink" width="500" zoomAndPan="magnify" viewBox="0 0 375 374.999991" height="500" preserveAspectRatio="xMidYMid meet" version="1.0"><path fill="#8acb88" d="M 309.996094 55.898438 C 309.996094 55.898438 310.804688 97.234375 263.839844 129.785156 C 216.871094 162.328125 184.484375 209.945312 203.042969 275.15625 C 203.042969 275.15625 249.238281 255.089844 262.636719 217.738281 C 262.230469 254.585938 205.332031 336.070312 123.289062 251.078125 C 123.289062 251.078125 182.796875 350.007812 283.324219 285.929688 C 339.75 249.960938 372.230469 167.191406 309.996094 55.898438 " fill-opacity="1" fill-rule="nonzero"/><path fill="#e4fde1" d="M 285.5625 302.625 C 266.203125 313.6875 243.789062 320.015625 219.894531 320.015625 C 146.707031 320.015625 87.375 260.6875 87.375 187.5 C 87.375 114.3125 146.707031 54.984375 219.894531 54.984375 C 243.789062 54.984375 266.203125 61.308594 285.5625 72.375 C 284.921875 69.597656 284.789062 66.636719 285.285156 63.589844 L 290.621094 30.90625 C 284.515625 26.871094 278.15625 23.1875 271.570312 19.878906 L 245.914062 40.859375 C 233.878906 50.699219 215.734375 45.835938 210.234375 31.296875 L 198.519531 0.335938 C 194.871094 0.125 191.199219 0.0078125 187.5 0.0078125 C 183.800781 0.0078125 180.128906 0.125 176.484375 0.335938 L 164.765625 31.296875 C 159.265625 45.835938 141.125 50.699219 129.085938 40.859375 L 103.429688 19.878906 C 96.847656 23.1875 90.484375 26.871094 84.375 30.90625 L 89.710938 63.589844 C 92.214844 78.933594 78.9375 92.214844 63.589844 89.710938 L 30.90625 84.378906 C 26.871094 90.484375 23.1875 96.84375 19.878906 103.429688 L 40.859375 129.085938 C 50.699219 141.121094 45.839844 159.265625 31.296875 164.765625 L 0.335938 176.480469 C 0.125 180.128906 0.0078125 183.800781 0.0078125 187.5 C 0.0078125 191.199219 0.125 194.871094 0.335938 198.519531 L 31.296875 210.234375 C 45.839844 215.734375 50.699219 233.878906 40.859375 245.914062 L 19.878906 271.570312 C 23.1875 278.15625 26.871094 284.515625 30.90625 290.621094 L 63.589844 285.285156 C 78.9375 282.785156 92.214844 296.066406 89.710938 311.410156 L 84.375 344.09375 C 90.484375 348.128906 96.847656 351.8125 103.429688 355.121094 L 129.085938 334.140625 C 141.125 324.300781 159.265625 329.160156 164.765625 343.703125 L 176.484375 374.664062 C 180.128906 374.875 183.800781 374.992188 187.5 374.992188 C 191.199219 374.992188 194.871094 374.875 198.519531 374.664062 L 210.234375 343.703125 C 215.734375 329.164062 233.878906 324.300781 245.914062 334.140625 L 271.570312 355.121094 C 278.15625 351.8125 284.515625 348.128906 290.621094 344.09375 L 285.285156 311.410156 C 284.789062 308.363281 284.921875 305.402344 285.5625 302.625 " fill-opacity="1" fill-rule="nonzero"/><path fill="#e4fde1" d="M 374.664062 176.480469 L 350.910156 167.496094 C 351.894531 174.019531 352.410156 180.703125 352.410156 187.5 C 352.410156 194.296875 351.894531 200.980469 350.910156 207.503906 L 374.664062 198.519531 C 374.875 194.871094 374.992188 191.199219 374.992188 187.5 C 374.992188 183.800781 374.875 180.128906 374.664062 176.480469 " fill-opacity="1" fill-rule="nonzero"/><path fill="#e4fde1" d="M 309.554688 285.070312 C 310.167969 285.121094 310.789062 285.183594 311.410156 285.285156 L 344.09375 290.621094 C 348.128906 284.515625 351.8125 278.15625 355.121094 271.570312 L 337.050781 249.46875 C 329.949219 262.863281 320.621094 274.894531 309.554688 285.070312 " fill-opacity="1" fill-rule="nonzero"/></svg>